<svg xmlns="http://www.w3.org/2000/svg" xmlns:xlink="http://www.w3.org/1999/xlink" contentStyleType="text/css" data-diagram-type="DESCRIPTION" height="683px" preserveAspectRatio="none" style="width:890px;height:683px;background:#FFFFFF;" version="1.1" viewBox="0 0 890 683" width="890px" zoomAndPan="magnify"><?plantuml 1.2026.3beta6?><defs/><g><!--cluster Camada de Apresenta??o (Front-End)--><g class="cluster" data-qualified-name="Camada de Apresenta..o .Front-End." data-source-line="10" id="ent0005"><path d="M566.1114,6 L863.9346,6 A3.75,3.75 0 0 1 866.4346,8.5 L873.4346,28.2969 L873.1114,28.2969 A2.5,2.5 0 0 1 875.6114,30.7969 L875.6114,100.8 A2.5,2.5 0 0 1 873.1114,103.3 L566.1114,103.3 A2.5,2.5 0 0 1 563.6114,100.8 L563.6114,8.5 A2.5,2.5 0 0 1 566.1114,6" fill="none" style="stroke:#000000;stroke-width:1.5;"/><line style="stroke:#000000;stroke-width:1.5;" x1="563.6114" x2="873.4346" y1="28.2969" y2="28.2969"/><text fill="#000000" font-family="sans-serif" font-size="14" font-weight="700" lengthAdjust="spacing" textLength="296.8232" x="567.6114" y="20.9951">Camada de Apresenta&#231;&#227;o (Front-End)</text></g><!--cluster Servidor Back-End (Kotlin MVC)--><g class="cluster" data-qualified-name="Servidor Back-End .Kotlin MVC." data-source-line="15" id="ent0007"><path d="M390.1114,166.3 L640.336,166.3 A3.75,3.75 0 0 1 642.836,168.8 L649.836,188.5969 L711.1114,188.5969 A2.5,2.5 0 0 1 713.6114,191.0969 L713.6114,533.39 A2.5,2.5 0 0 1 711.1114,535.89 L390.1114,535.89 A2.5,2.5 0 0 1 387.6114,533.39 L387.6114,168.8 A2.5,2.5 0 0 1 390.1114,166.3" fill="none" style="stroke:#000000;stroke-width:1.5;"/><line style="stroke:#000000;stroke-width:1.5;" x1="387.6114" x2="649.836" y1="188.5969" y2="188.5969"/><text fill="#000000" font-family="sans-serif" font-size="14" font-weight="700" lengthAdjust="spacing" textLength="249.2246" x="391.6114" y="181.2951">Servidor Back-End (Kotlin MVC)</text></g><!--entity AppWeb--><g class="entity" data-qualified-name="Camada de Apresenta..o .Front-End..AppWeb" data-source-line="11" id="ent0006"><rect fill="#F1F1F1" height="46.2969" rx="2.5" ry="2.5" style="stroke:#181818;stroke-width:0.5;" width="194.1982" x="581.5114" y="41"/><rect fill="#F1F1F1" height="10" style="stroke:#181818;stroke-width:0.5;" width="15" x="755.7096" y="46"/><rect fill="#F1F1F1" height="2" style="stroke:#181818;stroke-width:0.5;" width="4" x="753.7096" y="48"/><rect fill="#F1F1F1" height="2" style="stroke:#181818;stroke-width:0.5;" width="4" x="753.7096" y="52"/><text fill="#000000" font-family="sans-serif" font-size="14" lengthAdjust="spacing" textLength="154.1982" x="596.5114" y="73.9951">Aplica&#231;&#227;o React (SPA)</text></g><!--entity Controllers--><g class="entity" data-qualified-name="Servidor Back-End .Kotlin MVC..Controllers" data-source-line="17" id="ent0008"><rect fill="#F1F1F1" height="46.2969" rx="2.5" ry="2.5" style="stroke:#181818;stroke-width:0.5;" width="234.332" x="420.4414" y="201.3"/><rect fill="#F1F1F1" height="10" style="stroke:#181818;stroke-width:0.5;" width="15" x="634.7734" y="206.3"/><rect fill="#F1F1F1" height="2" style="stroke:#181818;stroke-width:0.5;" width="4" x="632.7734" y="208.3"/><rect fill="#F1F1F1" height="2" style="stroke:#181818;stroke-width:0.5;" width="4" x="632.7734" y="212.3"/><text fill="#000000" font-family="sans-serif" font-size="14" lengthAdjust="spacing" textLength="194.332" x="435.4414" y="234.2951">Controladores REST (Kotlin)</text></g><!--entity Models--><g class="entity" data-qualified-name="Servidor Back-End .Kotlin MVC..Models" data-source-line="18" id="ent0009"><rect fill="#F1F1F1" height="46.2969" rx="2.5" ry="2.5" style="stroke:#181818;stroke-width:0.5;" width="242.918" x="416.1514" y="330.45"/><rect fill="#F1F1F1" height="10" style="stroke:#181818;stroke-width:0.5;" width="15" x="639.0694" y="335.45"/><rect fill="#F1F1F1" height="2" style="stroke:#181818;stroke-width:0.5;" width="4" x="637.0694" y="337.45"/><rect fill="#F1F1F1" height="2" style="stroke:#181818;stroke-width:0.5;" width="4" x="637.0694" y="341.45"/><text fill="#000000" font-family="sans-serif" font-size="14" lengthAdjust="spacing" textLength="202.918" x="431.1514" y="363.4451">L&#243;gica de Neg&#243;cio (Services)</text></g><!--entity DAO--><g class="entity" data-qualified-name="Servidor Back-End .Kotlin MVC..DAO" data-source-line="19" id="ent0010"><rect fill="#F1F1F1" height="46.2969" rx="2.5" ry="2.5" style="stroke:#181818;stroke-width:0.5;" width="293.1621" x="404.0314" y="473.6"/><rect fill="#F1F1F1" height="10" style="stroke:#181818;stroke-width:0.5;" width="15" x="677.1935" y="478.6"/><rect fill="#F1F1F1" height="2" style="stroke:#181818;stroke-width:0.5;" width="4" x="675.1935" y="480.6"/><rect fill="#F1F1F1" height="2" style="stroke:#181818;stroke-width:0.5;" width="4" x="675.1935" y="484.6"/><text fill="#000000" font-family="sans-serif" font-size="14" lengthAdjust="spacing" textLength="253.1621" x="419.0314" y="506.5951">Camada de Persist&#234;ncia (ORM/DAO)</text></g><!--entity API--><g class="entity" data-qualified-name="API" data-source-line="5" id="ent0002"><ellipse cx="322.6114" cy="64.15" fill="#F1F1F1" rx="8" ry="8" style="stroke:#181818;stroke-width:0.5;"/><text fill="#000000" font-family="sans-serif" font-size="14" lengthAdjust="spacing" textLength="153.2822" x="245.9703" y="94.1451">API REST (HTTP/JSON)</text></g><!--entity ConexaoBD--><g class="entity" data-qualified-name="ConexaoBD" data-source-line="6" id="ent0003"><ellipse cx="196.6114" cy="496.74" fill="#F1F1F1" rx="8" ry="8" style="stroke:#181818;stroke-width:0.5;"/><text fill="#000000" font-family="sans-serif" font-size="14" lengthAdjust="spacing" textLength="144.2314" x="124.4957" y="526.7351">Driver JDBC / R2DBC</text></g><!--entity SMTP--><g class="entity" data-qualified-name="SMTP" data-source-line="7" id="ent0004"><ellipse cx="79.6114" cy="353.6" fill="#F1F1F1" rx="8" ry="8" style="stroke:#181818;stroke-width:0.5;"/><text fill="#000000" font-family="sans-serif" font-size="14" lengthAdjust="spacing" textLength="132.6172" x="13.3028" y="383.5951">SMTP / API Externa</text></g><!--entity BancoDados--><g class="entity" data-qualified-name="BancoDados" data-source-line="26" id="ent0013"><path d="M264.1014,622.89 C264.1014,612.89 373.6156,612.89 373.6156,612.89 C373.6156,612.89 483.1297,612.89 483.1297,622.89 L483.1297,648.1869 C483.1297,658.1869 373.6156,658.1869 373.6156,658.1869 C373.6156,658.1869 264.1014,658.1869 264.1014,648.1869 L264.1014,622.89" fill="#F1F1F1" style="stroke:#181818;stroke-width:0.5;"/><path d="M264.1014,622.89 C264.1014,632.89 373.6156,632.89 373.6156,632.89 C373.6156,632.89 483.1297,632.89 483.1297,622.89" fill="none" style="stroke:#181818;stroke-width:0.5;"/><text fill="#000000" font-family="sans-serif" font-size="14" lengthAdjust="spacing" textLength="199.0283" x="274.1014" y="649.8851">Banco de Dados PostgreSQL</text></g><!--entity ServicoEmail--><g class="entity" data-qualified-name="ServicoEmail" data-source-line="27" id="ent0014"><path d="M15.0706,482.6416 C18.1785,477.4202 24.2268,477.6133 27.285,482.7005 C31.61,476.3516 37.7469,474.2747 42.3952,482.3621 C45.9839,476.8813 49.9757,474.7119 54.8644,480.9827 C58.2219,473.8549 64.4418,473.8371 68.3633,480.4277 C71.123,474.66 76.7368,473.9415 80.7187,479.0377 C86.3226,473.2554 90.8531,473.1451 94.653,480.8952 C97.6944,475.3105 103.3427,474.5264 106.3916,480.8879 C111.1028,473.7833 115.7879,474.4124 120.7309,480.6385 C124.6946,475.8107 129.5003,474.8871 132.8126,481.3363 C137.6642,475.605 142.4215,476.0977 146.6138,482.111 C155.1304,485.6497 156.5778,493.0415 148.3395,498.3597 C153.6295,504.0058 154.1313,509.2341 145.739,512.334 C141.3091,518.8022 137.1154,518.0935 132.2521,512.8323 C130.0553,519.4409 123.9366,520.2284 119.541,515.243 C115.679,521.7616 111.1246,522.0245 106.6723,515.841 C103.0957,522.4342 96.7592,521.7317 93.1451,515.8818 C90.8558,522.5072 85.3986,522.3446 81.6875,517.2748 C77.2224,523.009 70.9594,523.7076 67.0466,516.643 C62.9708,521.8161 56.7534,523.0354 53.7553,515.5145 C49.6038,520.3093 43.5446,520.3368 41.1392,513.6036 C36.6902,519.4119 32.8908,519.4517 29.2053,512.8683 C23.9964,519.9637 19.2041,519.2573 14.3858,512.4519 C7.5335,509.7557 6.5416,502.9972 12.0562,498.2696 C6,491.933 6.9531,486.2443 15.0706,482.6416" fill="#F1F1F1" style="stroke:#181818;stroke-width:0.5;"/><text fill="#000000" font-family="sans-serif" font-size="14" lengthAdjust="spacing" textLength="116.9355" x="21.1414" y="501.5951">Servi&#231;o de Email</text></g><g class="entity" data-qualified-name="GMN18" data-source-line="32" id="ent0019"><path d="M366.9514,44.02 L366.9514,60.15 L332.0314,64.15 L366.9514,68.15 L366.9514,84.2856 A0,0 0 0 0 366.9514,84.2856 L546.2619,84.2856 A0,0 0 0 0 546.2619,84.2856 L546.2619,54.02 L536.2619,44.02 L366.9514,44.02 A0,0 0 0 0 366.9514,44.02" fill="#FEFFDD" style="stroke:#181818;stroke-width:0.5;"/><path d="M536.2619,44.02 L536.2619,54.02 L546.2619,54.02 L536.2619,44.02" fill="#FEFFDD" style="stroke:#181818;stroke-width:0.5;"/><text fill="#000000" font-family="sans-serif" font-size="13" lengthAdjust="spacing" textLength="158.3105" x="372.9514" y="61.0869">Requisi&#231;&#245;es ass&#237;ncronas</text><text fill="#000000" font-family="sans-serif" font-size="13" lengthAdjust="spacing" textLength="109.6113" x="397.301" y="76.2197">(ex: Axios/Fetch)</text></g><g class="entity" data-qualified-name="GMN24" data-source-line="36" id="ent0025"><path d="M240.6714,476.61 L240.6714,492.74 L205.8914,496.74 L240.6714,500.74 L240.6714,516.8756 A0,0 0 0 0 240.6714,516.8756 L368.5532,516.8756 A0,0 0 0 0 368.5532,516.8756 L368.5532,486.61 L358.5532,476.61 L240.6714,476.61 A0,0 0 0 0 240.6714,476.61" fill="#FEFFDD" style="stroke:#181818;stroke-width:0.5;"/><path d="M358.5532,476.61 L358.5532,486.61 L368.5532,486.61 L358.5532,476.61" fill="#FEFFDD" style="stroke:#181818;stroke-width:0.5;"/><text fill="#000000" font-family="sans-serif" font-size="13" lengthAdjust="spacing" textLength="101.5879" x="249.3184" y="493.6769">Conex&#227;o nativa</text><text fill="#000000" font-family="sans-serif" font-size="13" lengthAdjust="spacing" textLength="106.8818" x="246.6714" y="508.8097">com PostgreSQL</text></g><!--link Controllers to Models--><g class="link" data-entity-1="ent0008" data-entity-2="ent0009" data-link-type="dependency" data-source-line="21" id="lnk11"><path d="M537.6114,247.89 C537.6114,270.99 537.6114,300.78 537.6114,323.95" fill="none" id="Controllers-to-Models" style="stroke:#181818;stroke-width:1;"/><polygon fill="#181818" points="537.6114,329.95,541.6114,320.95,537.6114,324.95,533.6114,320.95,537.6114,329.95" style="stroke:#181818;stroke-width:1;"/><text fill="#000000" font-family="sans-serif" font-size="13" lengthAdjust="spacing" textLength="42.6118" x="538.6114" y="290.6669">invoca</text></g><!--link Models to DAO--><g class="link" data-entity-1="ent0009" data-entity-2="ent0010" data-link-type="dependency" data-source-line="22" id="lnk12"><path d="M539.6714,376.96 C542.1014,403.39 545.581,441.1253 548.011,467.5053" fill="none" id="Models-to-DAO" style="stroke:#181818;stroke-width:1;"/><polygon fill="#181818" points="548.5614,473.48,551.719,464.151,548.1028,468.5011,543.7527,464.8848,548.5614,473.48" style="stroke:#181818;stroke-width:1;"/><text fill="#000000" font-family="sans-serif" font-size="13" lengthAdjust="spacing" textLength="44.0781" x="546.6114" y="432.6669">delega</text></g><!--link AppWeb to Controllers--><g class="link" data-entity-1="ent0006" data-entity-2="ent0008" data-link-type="association" data-source-line="30" id="lnk15"><path d="M658.7114,87.5 C631.9114,117.58 584.5014,170.8 557.6414,200.96" fill="none" id="AppWeb-Controllers" style="stroke:#181818;stroke-width:1;"/><text fill="#000000" font-family="sans-serif" font-size="13" lengthAdjust="spacing" textLength="20.5664" x="636.6114" y="139.3669">API</text><path d="M618.1823,143.6235 A10,10 0 0 0 607.6224 134.2166" fill="none" style="stroke:#181818;stroke-width:1.5;"/><ellipse cx="608.1989" cy="144.2" fill="#FFFFFF" rx="6" ry="6" style="stroke:#181818;stroke-width:1.5;"/></g><!--link API to Controllers--><g class="link" data-entity-1="ent0002" data-entity-2="ent0008" data-link-type="association" data-source-line="31" id="lnk17"><path d="M325.9414,73.48 C330.2414,83.42 338.5014,100.09 349.6114,111.3 C388.6814,150.7 444.3314,181.64 484.9514,200.95" fill="none" id="API-Controllers" style="stroke:#181818;stroke-width:1;"/></g><!--link DAO to BancoDados--><g class="link" data-entity-1="ent0010" data-entity-2="ent0013" data-link-type="association" data-source-line="34" id="lnk21"><path d="M521.3814,520.33 C488.2914,545.91 434.7414,587.29 402.0014,612.6" fill="none" id="DAO-BancoDados" style="stroke:#181818;stroke-width:1;"/><text fill="#000000" font-family="sans-serif" font-size="13" lengthAdjust="spacing" textLength="75.8101" x="486.6114" y="571.9569">ConexaoBD</text><path d="M471.4791,567.8371 A10,10 0 0 0 462.831 556.6473" fill="none" style="stroke:#181818;stroke-width:1.5;"/><ellipse cx="461.5601" cy="566.5663" fill="#FFFFFF" rx="6" ry="6" style="stroke:#181818;stroke-width:1.5;"/></g><!--link ConexaoBD to BancoDados--><g class="link" data-entity-1="ent0003" data-entity-2="ent0013" data-link-type="association" data-source-line="35" id="lnk23"><path d="M199.9514,506.07 C204.2614,515.99 212.5314,532.66 223.6114,543.89 C252.4514,573.15 292.5914,596.75 324.0814,612.54" fill="none" id="ConexaoBD-BancoDados" style="stroke:#181818;stroke-width:1;"/></g><!--link Models to ServicoEmail--><g class="link" data-entity-1="ent0009" data-entity-2="ent0014" data-link-type="association" data-source-line="38" id="lnk27"><path d="M464.2814,377.2 C378.8614,403.52 238.5814,446.75 153.1014,473.1" fill="none" id="Models-ServicoEmail" style="stroke:#181818;stroke-width:1;"/><text fill="#000000" font-family="sans-serif" font-size="13" lengthAdjust="spacing" textLength="35.2485" x="344.6114" y="432.6669">SMTP</text><path d="M317.5538,429.8137 A10,10 0 0 0 313.3888 416.2988" fill="none" style="stroke:#181818;stroke-width:1.5;"/><ellipse cx="308.7139" cy="425.1388" fill="#FFFFFF" rx="6" ry="6" style="stroke:#181818;stroke-width:1.5;"/></g><!--link SMTP to ServicoEmail--><g class="link" data-entity-1="ent0004" data-entity-2="ent0014" data-link-type="association" data-source-line="39" id="lnk29"><path d="M79.6114,362.59 C79.6114,383.64 79.6114,441.2 79.6114,473.32" fill="none" id="SMTP-ServicoEmail" style="stroke:#181818;stroke-width:1;"/></g><?plantuml-src LLCzRzim4DtvAmvPgWo6YumU2iYMWoQDOzSosg7fSA5eXOX4gYJbkYtwQpe4AE0fw2_G7-kHz9SysFBTktjtxvxiirGD6go1wxhHIYYNkn-LWBQkhfWzPZEnnhPoAx5rQILBLHCGE7q9mzWRdvPATY_T7mq5Mf0-iKOkB0XeZ7QQwqhJ7zi8tktMaclBZY2uI1Sti9pcAqZUhrQBuMq-lx-y06f4YNDSPkH66BZDnXCOmlAAVWDiGfDlKO-pSt0-Moq8vNjFjnHL6B0-x6UU71OMS6sqSeEfAaQm5CWTQv0_Oqaz9bXZWL08I1iZBA4nRfaSQsZGNmpeyoLjAidt-T07adoHNduDYpJDP_78VlUPBOo9AJ9_qAwIwaIT2xEHXJP722GH0hDFaoDfPARzdT4L4fnwHYKZEBBlyvKmDXRSTQybpUeNknTbzyebhHGOwMQnPgOBKUtX9naMr49Qr_rLN28ay-LicANpM44FfvdEA65GwEzgy6xV4aRaZutc673xs052FIXF8L5YLEj6hGqAwqphMeE7KvAlKbFZJw7GUr6p0Xq-eYNXngYuzhDcf8U5XRQkD2B_U1VE7x8XmtYbss8lTFSIIgOroYhQ98YXGo0UZIpM_IDvrztEadPzQxDuO1WaRmUztKV1mpqrscOGWagJzumidnpeTV2fzz-tLbh_AdagjBRRAKvMG_kW4h6bRbkfxV1QEFvqoPYNAr2Urg8cfzVXB1neJva--J5-gFOULkZa1X-eGtsc8cE7atdUSvceDhnSlLYWzU7_?></g></svg>
